<svg width="168" height="168" viewBox="0 0 168 168" fill="none" xmlns="http://www.w3.org/2000/svg">
<path d="M159.167 114.992L159.419 39.4402L22.1451 39.5242L22.1406 30.8589H168V114.996L159.167 114.992ZM154.715 128.286L145.886 128.277L146.138 52.7255L8.86421 52.8139L8.85979 44.1486H154.719L154.715 128.286ZM141.708 137.141H0V57.4295H141.708V137.141ZM132.848 66.0107H8.85537V128.286H132.844L132.848 66.0107ZM119.567 121.645C119.567 122.428 119.762 123.157 120.014 123.856H70.8518C83.0804 123.856 92.9968 111.963 92.9968 97.2853C92.9968 82.6074 83.0804 70.7147 70.8518 70.7147H120.009C119.757 71.4133 119.563 72.1427 119.563 72.9297C119.563 76.5992 122.534 79.5701 126.203 79.5701C126.99 79.5701 127.72 79.3756 128.418 79.1236V115.443C127.72 115.195 126.99 114.996 126.203 114.996C122.538 115 119.567 117.976 119.567 121.645ZM110.708 88.063C107.038 88.063 104.067 92.0242 104.067 96.9183C104.067 101.812 107.038 105.774 110.708 105.774C114.377 105.774 117.348 101.812 117.348 96.9183C117.348 92.0242 114.377 88.063 110.708 88.063ZM80.1227 81.3208C80.189 81.4491 80.2421 81.6215 80.2863 81.8337C80.3349 82.0459 80.3659 82.3156 80.3792 82.6383C80.4013 82.9611 80.4101 83.3634 80.4101 83.8453C80.4101 84.3802 80.3968 84.8356 80.3703 85.2025C80.3394 85.5739 80.2907 85.879 80.2333 86.1177C80.1625 86.3608 80.0741 86.5377 79.9592 86.6438C79.8398 86.7543 79.6762 86.8118 79.4728 86.8118C79.2695 86.8118 78.9512 86.6836 78.5046 86.4272C78.0581 86.1663 77.5143 85.8922 76.8733 85.5916C76.2322 85.291 75.4806 85.0124 74.6318 84.7648C73.7829 84.5173 72.8545 84.3935 71.8377 84.3935C71.0419 84.3935 70.3522 84.4863 69.7642 84.6808C69.1718 84.8754 68.6766 85.1406 68.2832 85.4811C67.8897 85.8215 67.589 86.2326 67.3989 86.7057C67.2044 87.1832 67.1072 87.6916 67.1072 88.2221C67.1072 89.0179 67.3238 89.7032 67.7571 90.2867C68.1903 90.8703 68.7695 91.3832 69.5034 91.8341C70.2328 92.2895 71.0596 92.7095 71.9792 93.1074C72.8987 93.5053 73.8404 93.9253 74.7998 94.363C75.7592 94.8095 76.7008 95.3091 77.6248 95.875C78.5488 96.4364 79.3712 97.1084 80.0874 97.891C80.808 98.6779 81.3916 99.5975 81.8337 100.659C82.2758 101.72 82.4968 102.966 82.4968 104.408C82.4968 106.287 82.1432 107.94 81.4446 109.355C80.7461 110.774 79.7956 111.963 78.5931 112.914C77.3905 113.864 75.9935 114.576 74.3886 115.053C74.1853 115.115 73.9642 115.142 73.7564 115.191V120.027H69.4017V115.761C69.3442 115.761 69.2956 115.774 69.2381 115.774C68.0046 115.774 66.8552 115.672 65.7941 115.473C64.733 115.275 63.7958 115.027 62.9867 114.748C62.1733 114.465 61.4968 114.165 60.953 113.855C60.4093 113.546 60.0158 113.272 59.777 113.033C59.5383 112.794 59.3659 112.449 59.2642 111.999C59.1625 111.548 59.1095 110.893 59.1095 110.044C59.1095 109.474 59.1272 108.992 59.1669 108.608C59.2023 108.219 59.2642 107.905 59.3482 107.661C59.4322 107.423 59.5427 107.25 59.6798 107.149C59.8168 107.051 59.9804 106.998 60.1617 106.998C60.4225 106.998 60.785 107.149 61.2581 107.458C61.7267 107.759 62.3324 108.099 63.0707 108.466C63.809 108.833 64.6888 109.169 65.7145 109.474C66.7358 109.779 67.9251 109.934 69.2691 109.934C70.1533 109.934 70.949 109.828 71.6476 109.616C72.3461 109.403 72.9429 109.103 73.4337 108.718C73.92 108.329 74.2914 107.847 74.5522 107.277C74.8131 106.707 74.9413 106.065 74.9413 105.363C74.9413 104.549 74.7158 103.851 74.2781 103.271C73.836 102.688 73.2613 102.175 72.5495 101.72C71.8377 101.264 71.033 100.844 70.1312 100.451C69.2248 100.053 68.2964 99.6329 67.337 99.1907C66.3777 98.7486 65.4448 98.2446 64.5429 97.6832C63.6411 97.1217 62.832 96.4497 62.1246 95.6627C61.4173 94.8802 60.8381 93.9518 60.396 92.8863C59.9539 91.8164 59.7328 90.5343 59.7328 89.04C59.7328 87.3246 60.0512 85.8171 60.6878 84.5217C61.3244 83.2219 62.1821 82.1432 63.2608 81.2855C64.3396 80.4278 65.6128 79.7867 67.0762 79.3623C67.8278 79.1457 68.6059 78.9865 69.4061 78.8804V74.3046H73.7608V78.8804C73.9333 78.9025 74.1057 78.8937 74.2781 78.9202C75.1269 79.0484 75.9227 79.2208 76.6611 79.4419C77.3949 79.663 78.0493 79.9061 78.6196 80.1846C79.1899 80.4632 79.5701 80.6842 79.7602 80.8699C79.9326 81.0335 80.0564 81.1882 80.1227 81.3208ZM48.7112 97.2853C48.7112 111.959 58.6232 123.856 70.8518 123.856H21.6941C21.9417 123.157 22.1406 122.428 22.1406 121.645C22.1406 117.976 19.1653 115 15.5002 115C14.7133 115 13.9838 115.199 13.2853 115.447V79.128C13.9838 79.38 14.7133 79.5745 15.5002 79.5745C19.1697 79.5745 22.1406 76.6036 22.1406 72.9341C22.1406 72.1472 21.9417 71.4177 21.6941 70.7192H70.8518C58.6232 70.7147 48.7112 82.6118 48.7112 97.2853ZM30.996 88.063C27.3265 88.063 24.3556 92.0242 24.3556 96.9183C24.3556 101.812 27.3309 105.774 30.996 105.774C34.6655 105.774 37.6364 101.812 37.6364 96.9183C37.6364 92.0242 34.6655 88.063 30.996 88.063Z" fill="black"/>
</svg>
