<svg width="168" height="168" viewBox="0 0 168 168" fill="none" xmlns="http://www.w3.org/2000/svg">
<path d="M159.194 75.6591H8.37866V117.552C8.37866 119.774 9.26141 121.906 10.8327 123.477C12.404 125.048 14.5351 125.931 16.7573 125.931H25.1359C25.1359 121.487 26.9014 117.224 30.044 114.082C33.1866 110.939 37.4489 109.174 41.8932 109.174C46.3375 109.174 50.5998 110.939 53.7424 114.082C56.885 117.224 58.6505 121.487 58.6505 125.931H108.922C108.922 121.487 110.688 117.224 113.83 114.082C116.973 110.939 121.235 109.174 125.68 109.174C130.124 109.174 134.386 110.939 137.529 114.082C140.671 117.224 142.437 121.487 142.437 125.931H150.815C153.038 125.931 155.169 125.048 156.74 123.477C158.311 121.906 159.194 119.774 159.194 117.552V75.6591Z" fill="#2CA9BC"/>
<path d="M24.5494 125.931H16.7573C14.5351 125.931 12.404 125.048 10.8327 123.477C9.26141 121.906 8.37866 119.774 8.37866 117.552V33.7659C8.37866 31.5437 9.26141 29.4126 10.8327 27.8413C12.404 26.27 14.5351 25.3873 16.7573 25.3873H136.404C138.161 25.3827 139.874 25.9304 141.303 26.9527C142.731 27.9751 143.802 29.4206 144.364 31.0847L159.194 74.4023C159.462 75.2425 159.603 76.1179 159.613 76.9997V117.552C159.613 119.774 158.73 121.906 157.159 123.477C155.588 125.048 153.457 125.931 151.234 125.931H143.694" stroke="black" stroke-width="16.7573" stroke-linecap="round" stroke-linejoin="round"/>
<path d="M108.42 125.931H59.6559M158.524 75.6592H8.37866M108.922 25.3874V75.6592M41.8932 109.174C38.5789 109.174 35.3391 110.157 32.5834 111.998C29.8276 113.839 27.6798 116.456 26.4115 119.518C25.1432 122.58 24.8113 125.95 25.4579 129.2C26.1045 132.451 27.7005 135.437 30.044 137.78C32.3876 140.124 35.3734 141.72 38.624 142.366C41.8746 143.013 45.2439 142.681 48.3059 141.413C51.3679 140.144 53.985 137.997 55.8264 135.241C57.6677 132.485 58.6505 129.245 58.6505 125.931C58.6505 121.487 56.885 117.224 53.7424 114.082C50.5998 110.939 46.3375 109.174 41.8932 109.174ZM125.68 109.174C122.365 109.174 119.125 110.157 116.37 111.998C113.614 113.839 111.466 116.456 110.198 119.518C108.93 122.58 108.598 125.95 109.244 129.2C109.891 132.451 111.487 135.437 113.83 137.78C116.174 140.124 119.16 141.72 122.41 142.366C125.661 143.013 129.03 142.681 132.092 141.413C135.154 140.144 137.771 137.997 139.613 135.241C141.454 132.485 142.437 129.245 142.437 125.931C142.437 121.487 140.671 117.224 137.529 114.082C134.386 110.939 130.124 109.174 125.68 109.174Z" stroke="black" stroke-width="16.7573" stroke-linecap="round" stroke-linejoin="round"/>
</svg>
