<svg width="166" height="166" viewBox="0 0 166 166" fill="none" xmlns="http://www.w3.org/2000/svg">
<g clip-path="url(#clip0_32_3)">
<path d="M70.8133 144.208C68.9166 142.925 66.6075 142.168 64.1519 142.171C62.5168 142.171 60.9395 142.504 59.511 143.11C57.3696 144.015 55.5581 145.521 54.2729 147.423C52.9874 149.32 52.2359 151.629 52.2388 154.084C52.2359 155.719 52.5692 157.297 53.1745 158.723C54.0829 160.867 55.5857 162.678 57.485 163.961C59.3842 165.249 61.6966 166.001 64.1519 166.001C65.7869 166.001 67.361 165.667 68.7872 165.062C70.9313 164.157 72.7453 162.648 74.0282 160.749C75.3108 158.852 76.065 156.54 76.065 154.085C76.065 152.45 75.7291 150.876 75.1264 149.447C74.2205 147.302 72.7126 145.491 70.8133 144.208ZM68.5781 155.953C68.215 156.812 67.6009 157.553 66.8328 158.07C66.0622 158.587 65.1596 158.887 64.1522 158.89C63.4778 158.887 62.8527 158.755 62.2831 158.51C61.4272 158.153 60.6837 157.536 60.1663 156.771C59.6488 155.997 59.3515 155.092 59.346 154.084C59.3489 153.412 59.4835 152.79 59.726 152.215C60.0836 151.359 60.7006 150.619 61.4683 150.099C62.2393 149.581 63.1449 149.284 64.1522 149.281C64.824 149.281 65.4458 149.416 66.0184 149.658C66.8773 150.019 67.6149 150.633 68.1352 151.403C68.6527 152.174 68.9526 153.077 68.9526 154.084C68.9523 154.758 68.8203 155.381 68.5781 155.953Z" fill="black"/>
<path d="M136.154 144.208C134.254 142.925 131.945 142.168 129.49 142.171C127.855 142.171 126.278 142.504 124.852 143.11C122.71 144.015 120.896 145.521 119.611 147.423C118.328 149.32 117.574 151.629 117.577 154.084C117.574 155.719 117.91 157.297 118.515 158.723C119.421 160.867 120.927 162.678 122.826 163.964C124.722 165.249 127.034 166.001 129.49 166.001C131.125 166.001 132.702 165.667 134.128 165.062C136.27 164.157 138.084 162.648 139.369 160.749C140.651 158.852 141.406 156.54 141.403 154.085C141.405 152.45 141.07 150.876 140.464 149.447C139.559 147.302 138.053 145.491 136.154 144.208ZM133.916 155.953C133.555 156.812 132.939 157.553 132.174 158.07C131.403 158.587 130.497 158.887 129.49 158.89C128.815 158.887 128.194 158.755 127.621 158.51C126.762 158.153 126.024 157.536 125.507 156.771C124.987 155.997 124.686 155.092 124.686 154.084C124.686 153.412 124.821 152.79 125.061 152.215C125.424 151.359 126.038 150.619 126.806 150.099C127.577 149.581 128.482 149.284 129.489 149.281C130.164 149.281 130.786 149.416 131.359 149.658C132.215 150.019 132.955 150.633 133.472 151.403C133.99 152.174 134.293 153.077 134.293 154.084C134.293 154.758 134.159 155.381 133.916 155.953Z" fill="black"/>
<path d="M159.391 31.0388C157.753 29.0351 155.298 27.8705 152.705 27.8705H40.0946L36.2574 14.6887V14.6913C34.4959 8.79834 29.6622 4.33352 23.6505 3.0454L9.88255 0.0972767C7.55369 -0.403641 5.2579 1.08258 4.75698 3.41403C4.25865 5.74517 5.7426 8.04096 8.07665 8.53896L21.8397 11.49C24.771 12.1174 27.1271 14.2919 27.983 17.1658L53.1418 103.585C52.575 103.85 52.0271 104.136 51.5012 104.452C48.7872 106.068 46.6126 108.336 45.1537 110.984C43.7582 113.5 43.0177 116.352 42.949 119.294H42.935V119.743H42.9461C43.0012 122.041 43.4914 124.246 44.3418 126.258C45.7042 129.476 47.9669 132.198 50.8184 134.125C53.6702 136.055 57.1329 137.186 60.8212 137.183H141.736C144.122 137.183 146.057 135.251 146.057 132.867C146.057 130.483 144.122 128.551 141.736 128.551L60.8212 128.549C59.5331 128.549 58.3276 128.29 57.2211 127.825C55.5695 127.126 54.1436 125.947 53.1473 124.466C52.1892 123.043 51.6225 121.367 51.5781 119.528C51.6277 117.334 52.327 115.43 53.5545 113.907C54.1903 113.123 54.9746 112.435 55.9271 111.865C56.8687 111.303 57.9778 110.858 59.2799 110.577L140.607 97.3396C145.922 96.4726 150.147 92.4098 151.221 87.1328L161.169 38.228V38.2228C161.284 37.6557 161.339 37.0777 161.339 36.5051C161.339 34.529 160.662 32.597 159.391 31.0388ZM76.7313 92.2558C74.309 92.9659 71.771 91.573 71.0607 89.1508L59.2196 48.6056C58.5147 46.1833 59.9024 43.6454 62.3269 42.9379C64.752 42.2305 67.29 43.6207 67.9971 46.0459L79.836 86.5855C80.5464 89.0104 79.1532 91.5513 76.7313 92.2558ZM95.867 89.2419C93.4451 89.9493 90.9071 88.5594 90.1967 86.1342L79.2138 48.5287C78.5064 46.1065 79.8966 43.5685 82.3218 42.8585C84.7466 42.1536 87.2846 43.5439 87.9891 45.9687L98.9717 83.5716C99.6821 85.9964 98.2892 88.5344 95.867 89.2419ZM115.031 86.3161C112.608 87.0232 110.07 85.6333 109.36 83.2082L99.2113 48.4542C98.5039 46.0323 99.8941 43.4914 102.319 42.7868C104.742 42.0768 107.279 43.4667 107.986 45.8919L118.135 80.6455C118.846 83.0678 117.452 85.6084 115.031 86.3161ZM134.133 83.1942C131.711 83.9017 129.173 82.5117 128.466 80.0866L119.203 48.3741C118.496 45.9519 119.886 43.4142 122.311 42.7038C124.736 41.999 127.274 43.3866 127.978 45.8111L137.243 77.5236C137.948 79.9491 136.558 82.4842 134.133 83.1942Z" fill="black"/>
</g>
<defs>
<clipPath id="clip0_32_3">
<rect width="166" height="166" fill="white"/>
</clipPath>
</defs>
</svg>
